<svg width="201" height="100" viewBox="0 0 201 100" fill="none" xmlns="http://www.w3.org/2000/svg">
<path d="M-2.33992 47.41H43.2901L63.6501 26.07L174.83 22.84" stroke="#39A0ED" stroke-width="0.985" stroke-miterlimit="10"/>
<path d="M174.69 20.99C175.71 20.96 176.56 21.7599 176.59 22.7899C176.62 23.8099 175.82 24.6599 174.79 24.6899C173.77 24.7199 172.92 23.9199 172.89 22.8899C172.86 21.8599 173.66 21.02 174.69 20.99Z" fill="#39A0ED"/>
<path d="M85.3202 45.4401H157.73L166.6 36.5801H188.95" stroke="#39A0ED" stroke-width="0.985" stroke-miterlimit="10"/>
<path d="M188.86 34.73C189.88 34.73 190.71 35.56 190.71 36.58C190.71 37.6 189.88 38.43 188.86 38.43C187.84 38.43 187.01 37.6 187.01 36.58C187 35.56 187.83 34.73 188.86 34.73Z" fill="#39A0ED"/>
<path d="M-5.29953 83.3699H21.1305L32.6605 94.6899H105.23" stroke="#39A0ED" stroke-width="0.985" stroke-miterlimit="10"/>
<path d="M105.14 92.8398C106.16 92.8398 106.99 93.6698 106.99 94.6898C106.99 95.7098 106.16 96.5399 105.14 96.5399C104.12 96.5399 103.29 95.7098 103.29 94.6898C103.29 93.6698 104.11 92.8398 105.14 92.8398Z" fill="#39A0ED"/>
<path d="M97.1402 70.5602H145.4L152.53 63.6702H172.7" stroke="#39A0ED" stroke-width="0.985" stroke-miterlimit="10"/>
<path d="M172.6 61.8101C173.62 61.8101 174.45 62.6401 174.45 63.6601C174.45 64.6801 173.62 65.5101 172.6 65.5101C171.58 65.5101 170.75 64.6801 170.75 63.6601C170.75 62.6401 171.58 61.8101 172.6 61.8101Z" fill="#39A0ED"/>
<path d="M-2.82971 -21.53H59.9103L86.5103 5.05997H198.8" stroke="#39A0ED" stroke-width="0.985" stroke-miterlimit="10"/>
<path d="M198.71 3.20996C199.73 3.20996 200.56 4.03995 200.56 5.05995C200.56 6.07995 199.73 6.90996 198.71 6.90996C197.69 6.90996 196.86 6.07995 196.86 5.05995C196.86 4.03995 197.68 3.20996 198.71 3.20996Z" fill="#39A0ED"/>
<path d="M-3.82005 18.27H16L31.7599 2.51001H40.71" stroke="#39A0ED" stroke-width="0.985" stroke-miterlimit="10"/>
<path d="M40.6197 0.660034C41.6397 0.660034 42.4697 1.49003 42.4697 2.51003C42.4697 3.53003 41.6397 4.36003 40.6197 4.36003C39.5997 4.36003 38.7697 3.53003 38.7697 2.51003C38.7697 1.49003 39.5997 0.660034 40.6197 0.660034Z" fill="#39A0ED"/>
<path d="M-6.28015 39.9399H33.1098L56.2498 16.7899H81.5898" stroke="#39A0ED" stroke-width="0.985" stroke-miterlimit="10"/>
<path d="M81.4996 14.9399C82.5196 14.9399 83.3496 15.7699 83.3496 16.7899C83.3496 17.8099 82.5196 18.6399 81.4996 18.6399C80.4796 18.6399 79.6496 17.8099 79.6496 16.7899C79.6496 15.7699 80.4696 14.9399 81.4996 14.9399Z" fill="#39A0ED"/>
<path d="M-6.76974 56.19H59.6603L80.3503 35.51H135.76" stroke="#39A0ED" stroke-width="0.985" stroke-miterlimit="10"/>
<path d="M135.67 33.6499C136.69 33.6499 137.52 34.4799 137.52 35.4999C137.52 36.5199 136.69 37.3499 135.67 37.3499C134.65 37.3499 133.82 36.5199 133.82 35.4999C133.82 34.4799 134.65 33.6499 135.67 33.6499Z" fill="#39A0ED"/>
<path d="M38.5301 84.75H149.06" stroke="#39A0ED" stroke-width="0.985" stroke-miterlimit="10"/>
<path d="M148.97 82.8999C149.99 82.8999 150.82 83.7299 150.82 84.7499C150.82 85.7699 149.99 86.5999 148.97 86.5999C147.95 86.5999 147.12 85.7699 147.12 84.7499C147.12 83.7299 147.94 82.8999 148.97 82.8999Z" fill="#39A0ED"/>
<path d="M-0.37001 98.0498H23.48" stroke="#39A0ED" stroke-width="0.985" stroke-miterlimit="10"/>
<path d="M23.38 96.2C24.4 96.2 25.23 97.0299 25.23 98.0499C25.23 99.0699 24.4 99.8999 23.38 99.8999C22.36 99.8999 21.53 99.0699 21.53 98.0499C21.53 97.0299 22.36 96.2 23.38 96.2Z" fill="#39A0ED"/>
<path d="M-0.37001 98.0498H23.48" stroke="#39A0ED" stroke-width="0.985" stroke-miterlimit="10"/>
<path d="M23.38 96.2C24.4 96.2 25.23 97.0299 25.23 98.0499C25.23 99.0699 24.4 99.8999 23.38 99.8999C22.36 99.8999 21.53 99.0699 21.53 98.0499C21.53 97.0299 22.36 96.2 23.38 96.2Z" fill="#39A0ED"/>
<path d="M-0.37001 98.0498H23.48" stroke="#39A0ED" stroke-width="0.985" stroke-miterlimit="10"/>
<path d="M23.38 96.2C24.4 96.2 25.23 97.0299 25.23 98.0499C25.23 99.0699 24.4 99.8999 23.38 99.8999C22.36 99.8999 21.53 99.0699 21.53 98.0499C21.53 97.0299 22.36 96.2 23.38 96.2Z" fill="#39A0ED"/>
<path d="M-0.37001 98.0498H23.48" stroke="#39A0ED" stroke-width="0.985" stroke-miterlimit="10"/>
<path d="M23.38 96.2C24.4 96.2 25.23 97.0299 25.23 98.0499C25.23 99.0699 24.4 99.8999 23.38 99.8999C22.36 99.8999 21.53 99.0699 21.53 98.0499C21.53 97.0299 22.36 96.2 23.38 96.2Z" fill="#39A0ED"/>
<path d="M-4.79999 69.4902H78.75L90.08 58.1602H135.27" stroke="#39A0ED" stroke-width="0.985" stroke-miterlimit="10"/>
<path d="M135.18 56.3101C136.2 56.3101 137.03 57.1401 137.03 58.1601C137.03 59.1801 136.2 60.0101 135.18 60.0101C134.16 60.0101 133.33 59.1801 133.33 58.1601C133.33 57.1401 134.15 56.3101 135.18 56.3101Z" fill="#39A0ED"/>
<path d="M-4.79999 69.4902H78.75L90.08 58.1602H135.27" stroke="#39A0ED" stroke-width="0.985" stroke-miterlimit="10"/>
<path d="M135.18 56.3101C136.2 56.3101 137.03 57.1401 137.03 58.1601C137.03 59.1801 136.2 60.0101 135.18 60.0101C134.16 60.0101 133.33 59.1801 133.33 58.1601C133.33 57.1401 134.15 56.3101 135.18 56.3101Z" fill="#39A0ED"/>
<path d="M-4.79999 69.4902H78.75L90.08 58.1602H135.27" stroke="#39A0ED" stroke-width="0.985" stroke-miterlimit="10"/>
<path d="M135.18 56.3101C136.2 56.3101 137.03 57.1401 137.03 58.1601C137.03 59.1801 136.2 60.0101 135.18 60.0101C134.16 60.0101 133.33 59.1801 133.33 58.1601C133.33 57.1401 134.15 56.3101 135.18 56.3101Z" fill="#39A0ED"/>
</svg>
