<svg width="318" height="560" viewBox="0 0 318 560" fill="none" xmlns="http://www.w3.org/2000/svg">
<path d="M151.318 319.976L122.682 291.359H-31.7769" stroke="#39A0ED" stroke-width="0.985" stroke-miterlimit="10"/>
<path d="M323.135 115.337H223.007L178.331 162.133L-65.6353 169.216" stroke="#39A0ED" stroke-width="0.985" stroke-miterlimit="10"/>
<path d="M329.63 372.341H215.612L145.372 442.557H-39.3472" stroke="#39A0ED" stroke-width="0.985" stroke-miterlimit="10"/>
<path d="M179.055 350.04L150.243 378.832H-24.2061" stroke="#39A0ED" stroke-width="0.985" stroke-miterlimit="10"/>
<path d="M104.842 349.448L81.319 325.918H-2.59229" stroke="#39A0ED" stroke-width="0.985" stroke-miterlimit="10"/>
<path d="M-2.39459 329.975C-4.63281 329.975 -6.4541 328.155 -6.4541 325.918C-6.4541 323.682 -4.63281 321.861 -2.39459 321.861C-0.156373 321.861 1.66492 323.682 1.66492 325.918C1.66492 328.155 -0.156373 329.975 -2.39459 329.975Z" fill="#39A0ED"/>
<path d="M65.9371 355.062H-102.017" stroke="#39A0ED" stroke-width="0.985" stroke-miterlimit="10"/>
<path d="M130.779 119.657H-28.1121L-47.5758 139.086H-96.6191" stroke="#39A0ED" stroke-width="0.985" stroke-miterlimit="10"/>
<path d="M162.115 474.945H7.12891" stroke="#39A0ED" stroke-width="0.985" stroke-miterlimit="10"/>
<path d="M7.3266 479.002C5.08838 479.002 3.26709 477.182 3.26709 474.945C3.26709 472.709 5.08838 470.889 7.3266 470.889C9.56482 470.889 11.3861 472.709 11.3861 474.945C11.3861 477.182 9.56482 479.002 7.3266 479.002Z" fill="#39A0ED"/>
<path d="M329.63 495.47H217.851" stroke="#39A0ED" stroke-width="0.985" stroke-miterlimit="10"/>
<path d="M218.048 499.527C215.81 499.527 213.989 497.707 213.989 495.471C213.989 493.234 215.81 491.414 218.048 491.414C220.286 491.414 222.108 493.234 222.108 495.471C222.108 497.707 220.308 499.527 218.048 499.527Z" fill="#39A0ED"/>
<path d="M329.63 36.4819H271.634L246.333 11.6587H87.0903" stroke="#39A0ED" stroke-width="0.985" stroke-miterlimit="10"/>
<path d="M87.288 15.7156C85.0498 15.7156 83.2285 13.8955 83.2285 11.6588C83.2285 9.42204 85.0498 7.60195 87.288 7.60195C89.5263 7.60195 91.3476 9.42204 91.3476 11.6588C91.3476 13.8955 89.5482 15.7156 87.288 15.7156Z" fill="#39A0ED"/>
<path d="M104.842 64.5726H-1.05617L-16.7018 79.6814H-60.9614" stroke="#39A0ED" stroke-width="0.985" stroke-miterlimit="10"/>
<path d="M324.21 266.513H186.537L128.168 208.205H-118.233" stroke="#39A0ED" stroke-width="0.985" stroke-miterlimit="10"/>
<path d="M328.533 340.15H129.704L97.8208 314.23H-77.1553" stroke="#39A0ED" stroke-width="0.985" stroke-miterlimit="10"/>
<path d="M326.383 179.237H282.891L248.308 213.797H228.669" stroke="#39A0ED" stroke-width="0.985" stroke-miterlimit="10"/>
<path d="M228.867 217.854C226.628 217.854 224.807 216.034 224.807 213.797C224.807 211.56 226.628 209.74 228.867 209.74C231.105 209.74 232.926 211.56 232.926 213.797C232.926 216.034 231.105 217.854 228.867 217.854Z" fill="#39A0ED"/>
<path d="M331.78 131.718H245.346L194.569 182.483H138.964" stroke="#39A0ED" stroke-width="0.985" stroke-miterlimit="10"/>
<path d="M139.162 186.54C136.924 186.54 135.103 184.719 135.103 182.483C135.103 180.246 136.924 178.426 139.162 178.426C141.4 178.426 143.222 180.246 143.222 182.483C143.222 184.719 141.422 186.54 139.162 186.54Z" fill="#39A0ED"/>
<path d="M325.307 357.43H210.741L162.115 406.023H31.9907" stroke="#39A0ED" stroke-width="0.985" stroke-miterlimit="10"/>
<path d="M32.1884 410.08C29.9502 410.08 28.1289 408.26 28.1289 406.024C28.1289 403.787 29.9502 401.967 32.1884 401.967C34.4266 401.967 36.2479 403.787 36.2479 406.024C36.2479 408.26 34.4266 410.08 32.1884 410.08Z" fill="#39A0ED"/>
<path d="M144.823 435.188H47.1099" stroke="#39A0ED" stroke-width="0.985" stroke-miterlimit="10"/>
<path d="M47.3076 439.245C45.0693 439.245 43.248 437.425 43.248 435.189C43.248 432.952 45.0693 431.132 47.3076 431.132C49.5458 431.132 51.3671 432.952 51.3671 435.189C51.3671 437.425 49.5677 439.245 47.3076 439.245Z" fill="#39A0ED"/>
<path d="M332.856 96.0841H187.086L141.686 141.433H20.0977" stroke="#39A0ED" stroke-width="0.985" stroke-miterlimit="10"/>
<path d="M20.2954 145.511C18.0571 145.511 16.2358 143.691 16.2358 141.454C16.2358 139.218 18.0571 137.398 20.2954 137.398C22.5336 137.398 24.3549 139.218 24.3549 141.454C24.3549 143.691 22.5336 145.511 20.2954 145.511Z" fill="#39A0ED"/>
<path d="M336.103 425.452H275.232L251.841 402.098" stroke="#39A0ED" stroke-width="0.985" stroke-miterlimit="10"/>
<path d="M249.12 405.102C247.54 403.524 247.54 400.936 249.12 399.357C250.7 397.778 253.289 397.778 254.869 399.357C256.449 400.936 256.449 403.524 254.869 405.102C253.289 406.681 250.7 406.681 249.12 405.102Z" fill="#39A0ED"/>
<path d="M339.351 444.903H243.897L214.976 416.001" stroke="#39A0ED" stroke-width="0.985" stroke-miterlimit="10"/>
<path d="M212.233 419.005C210.653 417.427 210.653 414.839 212.233 413.26C213.813 411.681 216.402 411.681 217.982 413.26C219.562 414.839 219.562 417.427 217.982 419.005C216.402 420.584 213.835 420.606 212.233 419.005Z" fill="#39A0ED"/>
<path d="M331.78 477.292H191.475L167.249 501.062H51.4326" stroke="#39A0ED" stroke-width="0.985" stroke-miterlimit="10"/>
<path d="M51.6303 505.119C49.3921 505.119 47.5708 503.299 47.5708 501.062C47.5708 498.826 49.3921 497.006 51.6303 497.006C53.8685 497.006 55.6898 498.826 55.6898 501.062C55.6898 503.299 53.8905 505.119 51.6303 505.119Z" fill="#39A0ED"/>
<path d="M336.103 517.267H194.832L156.541 555.533" stroke="#39A0ED" stroke-width="0.985" stroke-miterlimit="10"/>
<path d="M159.547 558.274C157.967 559.853 155.378 559.853 153.798 558.274C152.218 556.695 152.218 554.108 153.798 552.529C155.378 550.95 157.967 550.95 159.547 552.529C161.149 554.108 161.149 556.673 159.547 558.274Z" fill="#39A0ED"/>
<path d="M233.453 33.4556H-9.08691" stroke="#39A0ED" stroke-width="0.985" stroke-miterlimit="10"/>
<path d="M318.812 4.29077H266.477" stroke="#39A0ED" stroke-width="0.985" stroke-miterlimit="10"/>
<path d="M266.697 8.34741C264.458 8.34741 262.637 6.52739 262.637 4.29067C262.637 2.05394 264.458 0.233851 266.697 0.233851C268.935 0.233851 270.756 2.05394 270.756 4.29067C270.756 6.52739 268.935 8.34741 266.697 8.34741Z" fill="#39A0ED"/>
<path d="M318.812 4.29077H266.477" stroke="#39A0ED" stroke-width="0.985" stroke-miterlimit="10"/>
<path d="M266.697 8.34741C264.458 8.34741 262.637 6.52739 262.637 4.29067C262.637 2.05394 264.458 0.233851 266.697 0.233851C268.935 0.233851 270.756 2.05394 270.756 4.29067C270.756 6.52739 268.935 8.34741 266.697 8.34741Z" fill="#39A0ED"/>
<path d="M318.812 4.29077H266.477" stroke="#39A0ED" stroke-width="0.985" stroke-miterlimit="10"/>
<path d="M266.697 8.34741C264.458 8.34741 262.637 6.52739 262.637 4.29067C262.637 2.05394 264.458 0.233851 266.697 0.233851C268.935 0.233851 270.756 2.05394 270.756 4.29067C270.756 6.52739 268.935 8.34741 266.697 8.34741Z" fill="#39A0ED"/>
<path d="M318.812 4.29077H266.477" stroke="#39A0ED" stroke-width="0.985" stroke-miterlimit="10"/>
<path d="M266.697 8.34741C264.458 8.34741 262.637 6.52739 262.637 4.29067C262.637 2.05394 264.458 0.233851 266.697 0.233851C268.935 0.233851 270.756 2.05394 270.756 4.29067C270.756 6.52739 268.935 8.34741 266.697 8.34741Z" fill="#39A0ED"/>
<path d="M328.533 66.9188H145.196L120.335 91.7639H21.1729" stroke="#39A0ED" stroke-width="0.985" stroke-miterlimit="10"/>
<path d="M21.3705 95.8208C19.1323 95.8208 17.311 94.0007 17.311 91.764C17.311 89.5273 19.1323 87.7072 21.3705 87.7072C23.6088 87.7072 25.4301 89.5273 25.4301 91.764C25.4301 94.0007 23.6307 95.8208 21.3705 95.8208Z" fill="#39A0ED"/>
<path d="M328.533 66.9188H145.196L120.335 91.7639H21.1729" stroke="#39A0ED" stroke-width="0.985" stroke-miterlimit="10"/>
<path d="M21.3705 95.8208C19.1323 95.8208 17.311 94.0007 17.311 91.764C17.311 89.5273 19.1323 87.7072 21.3705 87.7072C23.6088 87.7072 25.4301 89.5273 25.4301 91.764C25.4301 94.0007 23.6307 95.8208 21.3705 95.8208Z" fill="#39A0ED"/>
<path d="M328.533 66.9188H145.196L120.335 91.7639H21.1729" stroke="#39A0ED" stroke-width="0.985" stroke-miterlimit="10"/>
<path d="M21.3705 95.8208C19.1323 95.8208 17.311 94.0007 17.311 91.764C17.311 89.5273 19.1323 87.7072 21.3705 87.7072C23.6088 87.7072 25.4301 89.5273 25.4301 91.764C25.4301 94.0007 23.6307 95.8208 21.3705 95.8208Z" fill="#39A0ED"/>
<path d="M318.812 319.625H182.72L145.964 282.916H25.4956" stroke="#39A0ED" stroke-width="0.985" stroke-miterlimit="10"/>
<path d="M25.6933 286.973C23.4551 286.973 21.6338 285.153 21.6338 282.916C21.6338 280.679 23.4551 278.859 25.6933 278.859C27.9315 278.859 29.7528 280.679 29.7528 282.916C29.7528 285.153 27.9535 286.973 25.6933 286.973Z" fill="#39A0ED"/>
<path d="M325.307 234.322H266.477" stroke="#39A0ED" stroke-width="0.985" stroke-miterlimit="10"/>
<path d="M266.697 238.379C264.458 238.379 262.637 236.559 262.637 234.322C262.637 232.085 264.458 230.265 266.697 230.265C268.935 230.265 270.756 232.085 270.756 234.322C270.756 236.559 268.935 238.379 266.697 238.379Z" fill="#39A0ED"/>
</svg>
